# xmcd
#
# Track frame offsets:
#	150
#	24205
#	34872
#	47130
#	57215
#	67368
#	79516
#	89651
#	101458
#	112085
#	122920
#	132127
#	141092
#	150676
#	162348
#	172428
#	183188
#	193530
#	203772
#	213288
#	230193
#	239255
#	251975
#	262671
#	273966
#	283002
#	293653
#	305741
#	318106
#	333341
#	343103
#
# Disc length: 4582 seconds
#
# Revision: 0
# Processed by: cddbd v1.5.1PL0 Copyright (c) Steve Scherf et al.
# Submitted via: dBpowerAMP V4.0
#
DISCID=d411e41f
DTITLE=Jimmy Beasley - Jimmy 's House Party-The Modern Recordings
DYEAR=2002
DGENRE=Vocal
TTITLE0=Johnny's House Party Pts 1& 2
TTITLE1=Ella Jane
TTITLE2=No love for me
TTITLE3=Coquette
TTITLE4=Don't feel sorry for me
TTITLE5=My Happiness
TTITLE6=I'm so blue
TTITLE7=Near you
TTITLE8=Thinking of you
TTITLE9=You were only fooling (while I was falling in love)
TTITLE10=She' s good to me
TTITLE11=Don' t break this heart of mine
TTITLE12=We Three (my echo my shadow and me) -New Orleans Version
TTITLE13=Good lovin'
TTITLE14=Once more
TTITLE15=Moonlight Bay
TTITLE16=I'm not free
TTITLE17=Harbor Lights
TTITLE18=I want my baby (yea yea yea yea yea)
TTITLE19=Long gone
TTITLE20=That's the way it's gonna be
TTITLE21=In the morning in the evening
TTITLE22=Ready to go
TTITLE23=Early in the morning (please don' t leave me)
TTITLE24=My baby's gone
TTITLE25=Listen here big brown eyes
TTITLE26=Rhumba rock
TTITLE27=Jambalaya
TTITLE28=Rock and roll (nothing seems right)
TTITLE29=We Three (my echo my shadow and me) -Los Angeles Version
TTITLE30=Radio ID
EXTD=
EXTT0=
EXTT1=
EXTT2=
EXTT3=
EXTT4=
EXTT5=
EXTT6=
EXTT7=
EXTT8=
EXTT9=
EXTT10=
EXTT11=
EXTT12=
EXTT13=
EXTT14=
EXTT15=
EXTT16=
EXTT17=
EXTT18=
EXTT19=
EXTT20=
EXTT21=
EXTT22=
EXTT23=
EXTT24=
EXTT25=
EXTT26=
EXTT27=
EXTT28=
EXTT29=
EXTT30=
PLAYORDER=
